<svg xmlns="http://www.w3.org/2000/svg" height="24px" viewBox="0 -960 960 960" width="24px" fill="#11ff00"><path d="M188.42-178.86q-36.55-36.55-36.55-88.94h-46.46q-19.15 0-32.32-13.18-13.18-13.17-13.18-32.32 0-19.16 13.18-32.33 13.17-13.17 32.32-13.17h87.98q16.52-16.37 38.09-25.44 21.56-9.06 45.89-9.06 24.33 0 45.89 9.06 21.57 9.07 38.09 25.44h168.67l85.44-367.9H232.39q-19.15 0-32.32-13.17-13.18-13.17-13.18-32.33 0-19.15 13.18-32.32 13.17-13.18 32.32-13.18h440q22.39 0 36.19 17.16 13.79 17.15 8.31 38.54L689.7-645.5h71.26q21.63 0 40.9 9.58 19.27 9.57 31.94 26.72l71.66 94.94q12.43 15.91 15.91 34.8 3.48 18.89 0 38.05l-27.96 137.3q-3.48 15.91-15.79 26.11-12.32 10.2-28.47 10.2h-46.28q0 52.39-36.55 88.94-36.56 36.56-88.95 36.56t-88.95-36.56q-36.55-36.55-36.55-88.94h-149q0 52.39-36.55 88.94-36.56 36.56-88.95 36.56t-88.95-36.56Zm453.6-259.94H825.7l4.71-22.68-69.45-93.02h-91.89l-27.05 115.7Zm-110.24 73.23 6.62-29.23q6.62-29.24 16.62-71.48 3.48-15.15 6.84-27.95 3.36-12.79 5.6-24.51l6.5-29.24q6.5-29.24 16.5-71.48 10-42.24 16.62-71.47l6.62-29.24 1.76-6.53-85.44 367.9 1.76-6.77Zm-461.3-55.21q-19.15 0-32.33-13.18-13.17-13.17-13.17-32.32t13.17-32.33q13.18-13.17 32.33-13.17h140.48q19.15 0 32.32 13.17 13.18 13.18 13.18 32.33t-13.18 32.32q-13.17 13.18-32.32 13.18H70.48Zm80-153.18q-19.15 0-32.33-13.17-13.17-13.17-13.17-32.33 0-19.15 13.17-32.32 13.18-13.18 32.33-13.18h180.24q19.15 0 32.32 13.18 13.18 13.17 13.18 32.32 0 19.16-13.18 32.33-13.17 13.17-32.32 13.17H150.48ZM277.37-233.3q14.61 0 24.55-9.95 9.95-9.95 9.95-24.55 0-14.61-9.95-24.56-9.94-9.94-24.55-9.94-14.61 0-24.55 9.94-9.95 9.95-9.95 24.56 0 14.6 9.95 24.55 9.94 9.95 24.55 9.95Zm400 0q14.61 0 24.55-9.95 9.95-9.95 9.95-24.55 0-14.61-9.95-24.56-9.94-9.94-24.55-9.94-14.61 0-24.55 9.94-9.95 9.95-9.95 24.56 0 14.6 9.95 24.55 9.94 9.95 24.55 9.95Z"/></svg>